G04*
G04 #@! TF.GenerationSoftware,Altium Limited,Altium Designer,21.8.1 (53)*
G04*
G04 Layer_Color=65535*
%FSLAX44Y44*%
%MOMM*%
G71*
G04*
G04 #@! TF.SameCoordinates,76EF0272-B70A-4994-AA50-455E42ED4320*
G04*
G04*
G04 #@! TF.FilePolarity,Positive*
G04*
G01*
G75*
%ADD10C,0.2540*%
%ADD11C,0.3000*%
%ADD12C,0.1000*%
%ADD13C,0.2000*%
%ADD14C,0.1500*%
D10*
X520519Y879020D02*
G03*
X556441Y879020I17960J-17960D01*
G01*
X855290Y879820D02*
X877790D01*
X855290D02*
Y884820D01*
Y1071720D02*
X1035290D01*
Y1069820D02*
Y1134820D01*
X855290D02*
X1035290D01*
X855290Y1069820D02*
Y1134820D01*
X1035290Y879820D02*
Y884820D01*
X1012790Y879820D02*
X1035290D01*
X520520Y879020D02*
X556440D01*
X936070Y752080D02*
X945070D01*
Y781080D01*
X936070Y752080D02*
Y777080D01*
X940070Y781080D01*
X945070D01*
X602000Y891300D02*
X667000D01*
Y861300D02*
Y891300D01*
X602000Y861300D02*
X667000D01*
X602000D02*
Y891300D01*
X699790Y844310D02*
X764790D01*
Y814310D02*
Y844310D01*
X699790Y814310D02*
X764790D01*
X699790D02*
Y844310D01*
X817240Y849120D02*
X824240D01*
X817240Y840120D02*
Y849120D01*
X828240Y837120D02*
X834240D01*
X845240Y840120D02*
Y849120D01*
X838240D02*
X845240D01*
X467360Y788670D02*
X492760D01*
X817240Y799340D02*
X824240D01*
X817240D02*
Y808340D01*
X828240Y811340D02*
X834240D01*
X845240Y799340D02*
Y808340D01*
X838240Y799340D02*
X845240D01*
X582930Y943610D02*
Y1136650D01*
X557530Y943610D02*
Y1136650D01*
X532130Y943610D02*
Y1136650D01*
X506730Y943610D02*
Y1136650D01*
X481330Y943610D02*
Y1136650D01*
X436880Y981710D02*
Y996945D01*
X444497D01*
X447037Y994406D01*
Y989327D01*
X444497Y986788D01*
X436880D01*
Y1016000D02*
Y1031235D01*
X444497D01*
X447037Y1028696D01*
Y1023617D01*
X444497Y1021078D01*
X436880D01*
X441958D02*
X447037Y1016000D01*
X436880Y1049020D02*
Y1064255D01*
X441958Y1059177D01*
X447037Y1064255D01*
Y1049020D01*
X439420Y1096005D02*
X444498D01*
X441959D01*
Y1080770D01*
X439420D01*
X444498D01*
X438150Y1129025D02*
X448307D01*
X443228D01*
Y1113790D01*
X656082Y1125215D02*
X666239Y1109980D01*
Y1125215D02*
X656082Y1109980D01*
X671317D02*
Y1125215D01*
X678935D01*
X681474Y1122676D01*
Y1117598D01*
X678935Y1115058D01*
X671317D01*
X686552Y1112519D02*
X689091Y1109980D01*
X694170D01*
X696709Y1112519D01*
Y1122676D01*
X694170Y1125215D01*
X689091D01*
X686552Y1122676D01*
Y1120137D01*
X689091Y1117598D01*
X696709D01*
X635007Y815338D02*
X645163Y800102D01*
Y815338D02*
X635007Y800102D01*
X650242D02*
Y815338D01*
X657859D01*
X660398Y812798D01*
Y807720D01*
X657859Y805181D01*
X650242D01*
X665477Y815338D02*
X675633D01*
Y812798D01*
X665477Y802642D01*
Y800102D01*
X894083Y750567D02*
X904240Y735332D01*
Y750567D02*
X894083Y735332D01*
X909318D02*
X914397D01*
X911858D01*
Y750567D01*
X909318Y748028D01*
X998274Y845378D02*
Y832682D01*
X1000813Y830143D01*
X1005892D01*
X1008431Y832682D01*
Y845378D01*
X1013509Y842838D02*
X1016048Y845378D01*
X1021127D01*
X1023666Y842838D01*
Y840299D01*
X1021127Y837760D01*
X1018587D01*
X1021127D01*
X1023666Y835221D01*
Y832682D01*
X1021127Y830143D01*
X1016048D01*
X1013509Y832682D01*
X825373Y1122548D02*
Y1109852D01*
X827912Y1107312D01*
X832991D01*
X835530Y1109852D01*
Y1122548D01*
X840608Y1107312D02*
X845687D01*
X843148D01*
Y1122548D01*
X840608Y1120008D01*
X661667Y700732D02*
X646432D01*
Y708349D01*
X648972Y710888D01*
X654050D01*
X656589Y708349D01*
Y700732D01*
X646432Y723584D02*
Y718506D01*
X648972Y715966D01*
X659128D01*
X661667Y718506D01*
Y723584D01*
X659128Y726123D01*
X648972D01*
X646432Y723584D01*
Y731202D02*
X661667D01*
X656589Y736280D01*
X661667Y741358D01*
X646432D01*
Y756593D02*
Y746437D01*
X661667D01*
Y756593D01*
X654050Y746437D02*
Y751515D01*
X661667Y761672D02*
X646432D01*
Y769289D01*
X648972Y771829D01*
X654050D01*
X656589Y769289D01*
Y761672D01*
Y766750D02*
X661667Y771829D01*
X1046482Y717559D02*
X1061718D01*
Y725177D01*
X1059178Y727716D01*
X1056639D01*
X1054100Y725177D01*
Y717559D01*
Y725177D01*
X1051561Y727716D01*
X1049022D01*
X1046482Y725177D01*
Y717559D01*
Y740412D02*
Y735333D01*
X1049022Y732794D01*
X1059178D01*
X1061718Y735333D01*
Y740412D01*
X1059178Y742951D01*
X1049022D01*
X1046482Y740412D01*
Y755647D02*
Y750568D01*
X1049022Y748029D01*
X1059178D01*
X1061718Y750568D01*
Y755647D01*
X1059178Y758186D01*
X1049022D01*
X1046482Y755647D01*
Y763264D02*
Y773421D01*
Y768343D01*
X1061718D01*
X814072Y740411D02*
Y730254D01*
X829307D01*
Y740411D01*
X821690Y730254D02*
Y735332D01*
X829307Y745489D02*
X814072D01*
X829307Y755646D01*
X814072D01*
D11*
X885080Y802890D02*
G03*
X885080Y802890I-1500J0D01*
G01*
X936570Y785080D02*
G03*
X936570Y785080I-1500J0D01*
G01*
D12*
X520340Y661540D02*
X619340D01*
X520340D02*
Y801040D01*
X619340Y661540D02*
Y801040D01*
X520340Y751540D02*
X619340D01*
X654090Y1051960D02*
X786090D01*
X654090D02*
Y1101960D01*
X786090D01*
Y1051960D02*
Y1101960D01*
X455930Y999490D02*
X608330D01*
X455930Y974090D02*
Y999490D01*
Y974090D02*
X608330D01*
Y999490D01*
X455930Y1033780D02*
X608330D01*
X455930Y1008380D02*
Y1033780D01*
Y1008380D02*
X608330D01*
Y1033780D01*
X455930Y1068070D02*
X608330D01*
X455930Y1042670D02*
Y1068070D01*
Y1042670D02*
X608330D01*
Y1068070D01*
X408940Y892810D02*
Y918210D01*
X459740D01*
Y892810D02*
Y918210D01*
X408940Y892810D02*
X459740D01*
X455930Y1098550D02*
X608330D01*
X455930Y1073150D02*
Y1098550D01*
Y1073150D02*
X608330D01*
Y1098550D01*
X455930Y1131570D02*
X608330D01*
X455930Y1106170D02*
Y1131570D01*
Y1106170D02*
X608330D01*
Y1131570D01*
D13*
X892190Y682190D02*
X982190D01*
X892190D02*
Y731440D01*
X982190Y682190D02*
Y731440D01*
X892190D02*
X982190D01*
X773680Y946310D02*
X813680D01*
X773680D02*
Y966310D01*
X813680Y946310D02*
Y966310D01*
X773680D02*
X813680D01*
X790930Y872650D02*
Y892650D01*
X773680D02*
X813680D01*
Y872650D02*
Y892650D01*
X773680Y872650D02*
X813680D01*
X773680D02*
Y892650D01*
X887730Y832815D02*
Y847640D01*
X989330D01*
Y812640D02*
Y847640D01*
X896830Y812640D02*
X989330D01*
X887730Y821740D02*
X896830Y812640D01*
X887730Y821740D02*
Y832390D01*
X773680Y920910D02*
X813680D01*
X773680D02*
Y940910D01*
X813680Y920910D02*
Y940910D01*
X773680D02*
X813680D01*
X595880Y939640D02*
X635880D01*
Y919640D02*
Y939640D01*
X595880Y919640D02*
Y939640D01*
Y919640D02*
X635880D01*
X639200D02*
X679200D01*
X639200D02*
Y939640D01*
X679200Y919640D02*
Y939640D01*
X639200D02*
X679200D01*
X749140Y715400D02*
Y755400D01*
X729140Y715400D02*
X749140D01*
X729140Y755400D02*
X749140D01*
X729140Y715400D02*
Y755400D01*
X757080Y715400D02*
Y755400D01*
X777080D01*
X757080Y715400D02*
X777080D01*
Y755400D01*
X669450Y739100D02*
X689450D01*
Y716350D02*
Y756350D01*
X669450Y716350D02*
X689450D01*
X669450D02*
Y756350D01*
X689450D01*
X449580Y748030D02*
X459740D01*
X454660D02*
X459740Y753110D01*
X449580D02*
X454660Y748030D01*
X449580Y753110D02*
X459740D01*
X463660Y733840D02*
Y768840D01*
X445660Y733840D02*
X463660D01*
X445660D02*
Y768840D01*
X463660D01*
X1004570Y734060D02*
Y749300D01*
X1035050Y734060D02*
Y749300D01*
X840740Y734060D02*
Y749300D01*
X871220Y734060D02*
Y749300D01*
X773680Y896780D02*
X813680D01*
X773680D02*
Y916780D01*
X813680Y896780D02*
Y916780D01*
X773680D02*
X813680D01*
X773750Y995840D02*
X813750D01*
X773750D02*
Y1015840D01*
X813750Y995840D02*
Y1015840D01*
X773750D02*
X813750D01*
X966630Y747080D02*
Y787080D01*
X986630D01*
X966630Y747080D02*
X986630D01*
Y787080D01*
X773750Y990440D02*
X813750D01*
Y970440D02*
Y990440D01*
X773750Y970440D02*
Y990440D01*
Y970440D02*
X813750D01*
X722470Y715330D02*
Y755330D01*
X702470Y715330D02*
X722470D01*
X702470Y755330D02*
X722470D01*
X702470Y715330D02*
Y755330D01*
X432140Y859790D02*
X439390Y867790D01*
Y851790D02*
Y867790D01*
X432140Y859790D02*
X439390Y851790D01*
X410390Y848790D02*
X460390D01*
X410390D02*
Y870790D01*
X460390D01*
Y848790D02*
Y870790D01*
X432140Y851790D02*
Y867790D01*
X813450Y811500D02*
Y839500D01*
X799450D02*
X813450D01*
X799450Y811500D02*
X813450D01*
X799450D02*
Y839500D01*
X848981Y809751D02*
Y837750D01*
Y809751D02*
X862981D01*
X848981Y837750D02*
X862981D01*
Y809751D02*
Y837750D01*
X468950Y916780D02*
X508950D01*
Y896780D02*
Y916780D01*
X468950Y896780D02*
Y916780D01*
Y896780D02*
X508950D01*
X1055530Y975680D02*
Y1015680D01*
X1075530D01*
X1055530Y975680D02*
X1075530D01*
Y1015680D01*
X519820Y896780D02*
X559820D01*
X519820D02*
Y916780D01*
X559820Y896780D02*
Y916780D01*
X519820D02*
X559820D01*
X1079660Y975680D02*
Y1015680D01*
X1099660D01*
X1079660Y975680D02*
X1099660D01*
Y1015680D01*
X689773Y1030952D02*
Y1025620D01*
X693771D01*
Y1028286D01*
Y1025620D01*
X697770D01*
X689773Y1038949D02*
Y1033617D01*
X693771D01*
Y1036283D01*
Y1033617D01*
X697770D01*
Y1045614D02*
X689773D01*
X693771Y1041615D01*
Y1046946D01*
X663103Y1029682D02*
Y1024350D01*
X667101D01*
Y1027016D01*
Y1024350D01*
X671100D01*
X663103Y1037679D02*
Y1032347D01*
X667101D01*
Y1035013D01*
Y1032347D01*
X671100D01*
X663103Y1045676D02*
Y1040345D01*
X667101D01*
X665768Y1043011D01*
Y1044344D01*
X667101Y1045676D01*
X669767D01*
X671100Y1044344D01*
Y1041678D01*
X669767Y1040345D01*
X715173Y1029682D02*
Y1024350D01*
X719171D01*
Y1027016D01*
Y1024350D01*
X723170D01*
X715173Y1037679D02*
Y1032347D01*
X719171D01*
Y1035013D01*
Y1032347D01*
X723170D01*
X716506Y1040345D02*
X715173Y1041678D01*
Y1044344D01*
X716506Y1045676D01*
X717838D01*
X719171Y1044344D01*
Y1043011D01*
Y1044344D01*
X720504Y1045676D01*
X721837D01*
X723170Y1044344D01*
Y1041678D01*
X721837Y1040345D01*
X740573Y1032222D02*
Y1026890D01*
X744571D01*
Y1029556D01*
Y1026890D01*
X748570D01*
X740573Y1040219D02*
Y1034887D01*
X744571D01*
Y1037553D01*
Y1034887D01*
X748570D01*
Y1046884D02*
X740573D01*
X744571Y1042885D01*
Y1048216D01*
X764703Y1034762D02*
Y1029430D01*
X768701D01*
Y1032096D01*
Y1029430D01*
X772700D01*
X764703Y1042759D02*
Y1037427D01*
X768701D01*
Y1040093D01*
Y1037427D01*
X772700D01*
Y1045425D02*
Y1048091D01*
Y1046758D01*
X764703D01*
X766036Y1045425D01*
X483367Y884109D02*
Y878777D01*
X486033Y876111D01*
X488698Y878777D01*
Y884109D01*
X491364D02*
X496696D01*
X494030D01*
Y876111D01*
X504693D02*
X499362D01*
X504693Y881443D01*
Y882776D01*
X503360Y884109D01*
X500695D01*
X499362Y882776D01*
X662626Y906969D02*
Y900304D01*
X663958Y898971D01*
X666624D01*
X667957Y900304D01*
Y906969D01*
X674622Y898971D02*
Y906969D01*
X670623Y902970D01*
X675955D01*
X901385Y764729D02*
Y758064D01*
X902718Y756731D01*
X905384D01*
X906717Y758064D01*
Y764729D01*
X914715Y756731D02*
X909383D01*
X914715Y762063D01*
Y763396D01*
X913382Y764729D01*
X910716D01*
X909383Y763396D01*
X615847Y953976D02*
X614474Y955349D01*
X611729D01*
X610356Y953976D01*
Y948484D01*
X611729Y947111D01*
X614474D01*
X615847Y948484D01*
X624085Y955349D02*
X621339Y953976D01*
X618593Y951230D01*
Y948484D01*
X619966Y947111D01*
X622712D01*
X624085Y948484D01*
Y949857D01*
X622712Y951230D01*
X618593D01*
X656527Y952626D02*
X655194Y953959D01*
X652528D01*
X651196Y952626D01*
Y947294D01*
X652528Y945961D01*
X655194D01*
X656527Y947294D01*
X664525Y953959D02*
X659193D01*
Y949960D01*
X661859Y951293D01*
X663192D01*
X664525Y949960D01*
Y947294D01*
X663192Y945961D01*
X660526D01*
X659193Y947294D01*
X702473Y761811D02*
Y769809D01*
X706472D01*
X707805Y768476D01*
Y765810D01*
X706472Y764477D01*
X702473D01*
X705139D02*
X707805Y761811D01*
X710471D02*
X713136D01*
X711804D01*
Y769809D01*
X710471Y768476D01*
X717135D02*
X718468Y769809D01*
X721134D01*
X722467Y768476D01*
Y763144D01*
X721134Y761811D01*
X718468D01*
X717135Y763144D01*
Y768476D01*
X423677Y934909D02*
X429008Y926911D01*
Y934909D02*
X423677Y926911D01*
X431674D02*
Y934909D01*
X435673D01*
X437006Y933576D01*
Y930910D01*
X435673Y929577D01*
X431674D01*
X445003Y926911D02*
X439672D01*
X445003Y932243D01*
Y933576D01*
X443670Y934909D01*
X441004D01*
X439672Y933576D01*
X790707Y852359D02*
Y847027D01*
X793373Y844361D01*
X796038Y847027D01*
Y852359D01*
X798704D02*
X804036D01*
X801370D01*
Y844361D01*
X806702Y851026D02*
X808035Y852359D01*
X810700D01*
X812033Y851026D01*
Y849693D01*
X810700Y848360D01*
X809367D01*
X810700D01*
X812033Y847027D01*
Y845694D01*
X810700Y844361D01*
X808035D01*
X806702Y845694D01*
X850460Y805369D02*
Y800037D01*
X853126Y797371D01*
X855791Y800037D01*
Y805369D01*
X858457D02*
X863789D01*
X861123D01*
Y797371D01*
X866454D02*
X869120D01*
X867787D01*
Y805369D01*
X866454Y804036D01*
X441457Y783779D02*
Y778447D01*
X444123Y775781D01*
X446788Y778447D01*
Y783779D01*
X449454D02*
Y775781D01*
X453453D01*
X454786Y777114D01*
Y782446D01*
X453453Y783779D01*
X449454D01*
X457452Y782446D02*
X458784Y783779D01*
X461450D01*
X462783Y782446D01*
Y781113D01*
X461450Y779780D01*
X460117D01*
X461450D01*
X462783Y778447D01*
Y777114D01*
X461450Y775781D01*
X458784D01*
X457452Y777114D01*
X411480Y886837D02*
Y881506D01*
X414146Y878840D01*
X416812Y881506D01*
Y886837D01*
X419477D02*
Y878840D01*
X423476D01*
X424809Y880173D01*
Y885505D01*
X423476Y886837D01*
X419477D01*
X427475Y878840D02*
X430141D01*
X428808D01*
Y886837D01*
X427475Y885505D01*
X760415Y861249D02*
Y854584D01*
X761748Y853251D01*
X764414D01*
X765747Y854584D01*
Y861249D01*
X773745D02*
X771079Y859916D01*
X768413Y857250D01*
Y854584D01*
X769746Y853251D01*
X772412D01*
X773745Y854584D01*
Y855917D01*
X772412Y857250D01*
X768413D01*
X473454Y823783D02*
X472121Y825115D01*
X469455D01*
X468122Y823783D01*
Y822450D01*
X469455Y821117D01*
X472121D01*
X473454Y819784D01*
Y818451D01*
X472121Y817118D01*
X469455D01*
X468122Y818451D01*
X476119Y823783D02*
X477452Y825115D01*
X480118D01*
X481451Y823783D01*
Y822450D01*
X480118Y821117D01*
X478785D01*
X480118D01*
X481451Y819784D01*
Y818451D01*
X480118Y817118D01*
X477452D01*
X476119Y818451D01*
X798515Y798641D02*
Y806639D01*
X802514D01*
X803847Y805306D01*
Y802640D01*
X802514Y801307D01*
X798515D01*
X801181D02*
X803847Y798641D01*
X810512D02*
Y806639D01*
X806513Y802640D01*
X811844D01*
X850648Y844361D02*
Y852359D01*
X854647D01*
X855980Y851026D01*
Y848360D01*
X854647Y847027D01*
X850648D01*
X853314D02*
X855980Y844361D01*
X858646D02*
X861312D01*
X859979D01*
Y852359D01*
X858646Y851026D01*
X750256Y926911D02*
Y934909D01*
X754254D01*
X755587Y933576D01*
Y930910D01*
X754254Y929577D01*
X750256D01*
X752921D02*
X755587Y926911D01*
X758253Y933576D02*
X759586Y934909D01*
X762252D01*
X763585Y933576D01*
Y932243D01*
X762252Y930910D01*
X763585Y929577D01*
Y928244D01*
X762252Y926911D01*
X759586D01*
X758253Y928244D01*
Y929577D01*
X759586Y930910D01*
X758253Y932243D01*
Y933576D01*
X759586Y930910D02*
X762252D01*
X752795Y902781D02*
Y910779D01*
X756794D01*
X758127Y909446D01*
Y906780D01*
X756794Y905447D01*
X752795D01*
X755461D02*
X758127Y902781D01*
X760793Y910779D02*
X766124D01*
Y909446D01*
X760793Y904114D01*
Y902781D01*
X495056Y925641D02*
Y933639D01*
X499054D01*
X500387Y932306D01*
Y929640D01*
X499054Y928307D01*
X495056D01*
X497721D02*
X500387Y925641D01*
X508385Y933639D02*
X505719Y932306D01*
X503053Y929640D01*
Y926974D01*
X504386Y925641D01*
X507052D01*
X508385Y926974D01*
Y928307D01*
X507052Y929640D01*
X503053D01*
X1058866Y1020891D02*
Y1028889D01*
X1062864D01*
X1064197Y1027556D01*
Y1024890D01*
X1062864Y1023557D01*
X1058866D01*
X1061531D02*
X1064197Y1020891D01*
X1072195Y1028889D02*
X1066863D01*
Y1024890D01*
X1069529Y1026223D01*
X1070862D01*
X1072195Y1024890D01*
Y1022224D01*
X1070862Y1020891D01*
X1068196D01*
X1066863Y1022224D01*
X544515Y924371D02*
Y932369D01*
X548514D01*
X549847Y931036D01*
Y928370D01*
X548514Y927037D01*
X544515D01*
X547181D02*
X549847Y924371D01*
X552513Y931036D02*
X553846Y932369D01*
X556512D01*
X557845Y931036D01*
Y929703D01*
X556512Y928370D01*
X555179D01*
X556512D01*
X557845Y927037D01*
Y925704D01*
X556512Y924371D01*
X553846D01*
X552513Y925704D01*
X1082996Y1019621D02*
Y1027619D01*
X1086994D01*
X1088327Y1026286D01*
Y1023620D01*
X1086994Y1022287D01*
X1082996D01*
X1085661D02*
X1088327Y1019621D01*
X1096324D02*
X1090993D01*
X1096324Y1024953D01*
Y1026286D01*
X1094992Y1027619D01*
X1092326D01*
X1090993Y1026286D01*
X735808Y766006D02*
X734475Y767339D01*
X731809D01*
X730476Y766006D01*
Y760674D01*
X731809Y759341D01*
X734475D01*
X735808Y760674D01*
X738474Y759341D02*
X741139D01*
X739807D01*
Y767339D01*
X738474Y766006D01*
X745138Y759341D02*
X747804D01*
X746471D01*
Y767339D01*
X745138Y766006D01*
X764955Y708856D02*
X763622Y710189D01*
X760956D01*
X759623Y708856D01*
Y703524D01*
X760956Y702191D01*
X763622D01*
X764955Y703524D01*
X767621Y702191D02*
X770286D01*
X768954D01*
Y710189D01*
X767621Y708856D01*
X774285D02*
X775618Y710189D01*
X778284D01*
X779617Y708856D01*
Y703524D01*
X778284Y702191D01*
X775618D01*
X774285Y703524D01*
Y708856D01*
X760737Y1009776D02*
X759404Y1011109D01*
X756738D01*
X755406Y1009776D01*
Y1004444D01*
X756738Y1003111D01*
X759404D01*
X760737Y1004444D01*
X763403Y1009776D02*
X764736Y1011109D01*
X767402D01*
X768735Y1009776D01*
Y1008443D01*
X767402Y1007110D01*
X766069D01*
X767402D01*
X768735Y1005777D01*
Y1004444D01*
X767402Y1003111D01*
X764736D01*
X763403Y1004444D01*
X996887Y793806D02*
X995554Y795138D01*
X992888D01*
X991555Y793806D01*
Y788474D01*
X992888Y787141D01*
X995554D01*
X996887Y788474D01*
X1003552Y787141D02*
Y795138D01*
X999553Y791140D01*
X1004884D01*
X760667Y958976D02*
X759334Y960309D01*
X756668D01*
X755335Y958976D01*
Y953644D01*
X756668Y952311D01*
X759334D01*
X760667Y953644D01*
X768664Y952311D02*
X763333D01*
X768664Y957643D01*
Y958976D01*
X767332Y960309D01*
X764666D01*
X763333Y958976D01*
X763801Y984375D02*
X762468Y985708D01*
X759802D01*
X758469Y984375D01*
Y979043D01*
X759802Y977710D01*
X762468D01*
X763801Y979043D01*
X766466Y977710D02*
X769132D01*
X767799D01*
Y985708D01*
X766466Y984375D01*
D14*
X591213Y947650D02*
X596544D01*
X599210Y950316D01*
X596544Y952982D01*
X591213D01*
X592546Y960979D02*
X591213Y959646D01*
Y956980D01*
X592546Y955647D01*
X597877D01*
X599210Y956980D01*
Y959646D01*
X597877Y960979D01*
X592546Y968976D02*
X591213Y967644D01*
Y964978D01*
X592546Y963645D01*
X597877D01*
X599210Y964978D01*
Y967644D01*
X597877Y968976D01*
X567146Y952982D02*
X565813Y951649D01*
Y948983D01*
X567146Y947650D01*
X572477D01*
X573810Y948983D01*
Y951649D01*
X572477Y952982D01*
X569811D01*
Y950316D01*
X573810Y955647D02*
X565813D01*
X573810Y960979D01*
X565813D01*
Y963645D02*
X573810D01*
Y967644D01*
X572477Y968976D01*
X567146D01*
X565813Y967644D01*
Y963645D01*
X549680Y955270D02*
X541683D01*
X544348Y957936D01*
X541683Y960602D01*
X549680D01*
Y963267D02*
Y965933D01*
Y964600D01*
X541683D01*
X543016Y963267D01*
X524280Y955270D02*
X516283D01*
X518948Y957936D01*
X516283Y960602D01*
X524280D01*
Y968599D02*
Y963267D01*
X518948Y968599D01*
X517616D01*
X516283Y967266D01*
Y964600D01*
X517616Y963267D01*
X492215Y947902D02*
X490883Y946569D01*
Y943903D01*
X492215Y942570D01*
X493548D01*
X494881Y943903D01*
Y946569D01*
X496214Y947902D01*
X497547D01*
X498880Y946569D01*
Y943903D01*
X497547Y942570D01*
X490883Y950567D02*
Y953233D01*
Y951900D01*
X498880D01*
Y950567D01*
Y953233D01*
X492215Y962563D02*
X490883Y961231D01*
Y958565D01*
X492215Y957232D01*
X497547D01*
X498880Y958565D01*
Y961231D01*
X497547Y962563D01*
X494881D01*
Y959898D01*
X498880Y965229D02*
X490883D01*
X498880Y970561D01*
X490883D01*
X465483Y942570D02*
X470814D01*
X473480Y945236D01*
X470814Y947902D01*
X465483D01*
X473480Y950567D02*
X465483D01*
Y954566D01*
X466815Y955899D01*
X469481D01*
X470814Y954566D01*
Y950567D01*
Y953233D02*
X473480Y955899D01*
X465483Y963896D02*
Y958565D01*
X473480D01*
Y963896D01*
X469481Y958565D02*
Y961231D01*
X465483Y971894D02*
Y966562D01*
X469481D01*
Y969228D01*
Y966562D01*
X473480D01*
M02*
