G04*
G04 #@! TF.GenerationSoftware,Altium Limited,Altium Designer,21.8.1 (53)*
G04*
G04 Layer_Physical_Order=2*
G04 Layer_Color=16711680*
%FSLAX44Y44*%
%MOMM*%
G71*
G04*
G04 #@! TF.SameCoordinates,E9657587-2D61-4917-BE27-2A2E8D1190E0*
G04*
G04*
G04 #@! TF.FilePolarity,Positive*
G04*
G01*
G75*
%ADD11C,0.3000*%
%ADD57R,1.3000X1.1000*%
%ADD63C,0.8000*%
%ADD64C,0.6000*%
%ADD68C,1.8000*%
%ADD69O,3.0000X4.0000*%
%ADD70C,1.6000*%
%ADD71R,1.6000X1.6000*%
%ADD72O,1.4000X2.4000*%
%ADD73C,1.5240*%
%ADD74C,1.5000*%
%ADD75C,1.0000*%
%ADD76C,1.2000*%
G36*
X925830Y942908D02*
X917791D01*
X917450Y943498D01*
X915558Y945390D01*
X913242Y946728D01*
X910658Y947420D01*
X910590D01*
Y937260D01*
Y927100D01*
X910658D01*
X913242Y927792D01*
X915558Y929130D01*
X917450Y931022D01*
X917791Y931611D01*
X925830D01*
Y909640D01*
X924657Y909154D01*
X908904Y924906D01*
X907538Y925955D01*
X907982Y927100D01*
X908050D01*
Y935990D01*
X899160D01*
Y935922D01*
X899852Y933338D01*
X901190Y931022D01*
X903082Y929130D01*
X905007Y928018D01*
X904591Y926792D01*
X904240Y926838D01*
X887984D01*
X886277Y926614D01*
X884686Y925955D01*
X883320Y924906D01*
X865370Y906956D01*
X861210D01*
Y908400D01*
X843130D01*
Y893056D01*
X837080D01*
Y899090D01*
X828040D01*
Y900360D01*
X826770D01*
Y908400D01*
X819000D01*
Y904479D01*
X812950D01*
Y908400D01*
X805180D01*
Y900360D01*
X803910D01*
Y899090D01*
X794870D01*
Y893056D01*
X780988D01*
X778660Y895385D01*
Y899463D01*
X781013Y900947D01*
X781577Y901415D01*
X782158Y901862D01*
X793588Y913292D01*
X794637Y914658D01*
X794911Y915320D01*
X812950D01*
Y919241D01*
X819000D01*
Y915320D01*
X837080D01*
Y919241D01*
X843130D01*
Y915320D01*
X861210D01*
Y919834D01*
X862128Y920447D01*
X869561Y927880D01*
X870454Y929216D01*
X870767Y930793D01*
Y955040D01*
X925830D01*
Y942908D01*
D02*
G37*
G36*
X765825Y953995D02*
X765804Y953770D01*
X765501Y952246D01*
Y932600D01*
X760580D01*
Y928679D01*
X757018D01*
X756666Y928749D01*
X753260D01*
Y932670D01*
X735180D01*
Y928749D01*
X729130D01*
Y932670D01*
X712234D01*
Y938782D01*
X712823Y939122D01*
X714715Y941014D01*
X716053Y943331D01*
X716745Y945915D01*
Y945982D01*
X706585D01*
Y948522D01*
X716745D01*
Y948590D01*
X716053Y951174D01*
X714715Y953491D01*
X714339Y953867D01*
X714825Y955040D01*
X765160D01*
X765825Y953995D01*
D02*
G37*
G36*
X862529Y945665D02*
Y932499D01*
X862144Y932114D01*
X861210Y931400D01*
Y931400D01*
X861210Y931400D01*
X843130D01*
Y927479D01*
X837080D01*
Y931400D01*
X819000D01*
Y927479D01*
X812950D01*
Y931400D01*
X797562D01*
X796928Y932670D01*
X797329Y933204D01*
X845820D01*
X847527Y933428D01*
X849118Y934087D01*
X850484Y935136D01*
X860644Y945296D01*
X861259Y946096D01*
X862529Y945665D01*
D02*
G37*
G36*
X835232Y954301D02*
X835746Y952384D01*
X836739Y950664D01*
X838142Y949260D01*
X839862Y948268D01*
X841302Y947882D01*
X841867Y946794D01*
X841895Y946484D01*
X841837Y946396D01*
X794004D01*
X792297Y946172D01*
X790706Y945513D01*
X789340Y944464D01*
X784260Y939384D01*
X783211Y938018D01*
X782552Y936427D01*
X782328Y934720D01*
Y920688D01*
X779833Y918194D01*
X778660Y918680D01*
Y932600D01*
X773739D01*
Y950540D01*
X778239Y955040D01*
X835232D01*
Y954301D01*
D02*
G37*
G36*
X756736Y920441D02*
X760580D01*
Y916520D01*
X776500D01*
X776986Y915347D01*
X773351Y911712D01*
X770002Y909600D01*
X760580D01*
Y896186D01*
X753260D01*
Y900360D01*
X744220D01*
Y901630D01*
X742950D01*
Y909670D01*
X735180D01*
Y905749D01*
X729130D01*
Y909670D01*
X721360D01*
Y901630D01*
X718820D01*
Y909888D01*
X713388Y915320D01*
X713914Y916590D01*
X729130D01*
Y920511D01*
X735180D01*
Y916590D01*
X753260D01*
Y920511D01*
X756384D01*
X756736Y920441D01*
D02*
G37*
G36*
X918980Y896174D02*
Y886460D01*
X910775D01*
X906110Y891124D01*
X904744Y892173D01*
X903153Y892832D01*
X901446Y893056D01*
X870878D01*
X870626Y894326D01*
X871400Y894647D01*
X872766Y895695D01*
X890716Y913646D01*
X901508D01*
X918980Y896174D01*
D02*
G37*
%LPC*%
G36*
X908050Y947420D02*
X907982D01*
X905398Y946728D01*
X903082Y945390D01*
X901190Y943498D01*
X899852Y941182D01*
X899160Y938598D01*
Y938530D01*
X908050D01*
Y947420D01*
D02*
G37*
G36*
X837080Y908400D02*
X829310D01*
Y901630D01*
X837080D01*
Y908400D01*
D02*
G37*
G36*
X802640D02*
X794870D01*
Y901630D01*
X802640D01*
Y908400D01*
D02*
G37*
G36*
X753260Y909670D02*
X745490D01*
Y902900D01*
X753260D01*
Y909670D01*
D02*
G37*
%LPD*%
D11*
X1073730Y868659D02*
G03*
X1073730Y868704I-3000J0D01*
G01*
X409956Y891794D02*
Y929354D01*
Y891794D02*
X476250Y825500D01*
X785114D01*
X539750Y890270D02*
X564778D01*
X565476Y889866D01*
X618555Y859132D01*
X582930Y886460D02*
X593918D01*
X536702Y902462D02*
X566928D01*
X582930Y886460D01*
X598998Y891540D02*
X638335D01*
X593918Y886460D02*
X598998Y891540D01*
X638335D02*
X678666Y864673D01*
X615950Y881380D02*
X616560Y880770D01*
X625450D01*
X591566Y897890D02*
X593701Y900025D01*
X640034D02*
X680927Y870284D01*
X593701Y900025D02*
X640034D01*
X674426Y853206D02*
X790995Y842036D01*
X622300Y868172D02*
X674426Y853206D01*
X833683Y752547D02*
X1011737D01*
X798690Y787540D02*
X833683Y752547D01*
X782180Y787540D02*
X798690D01*
X877741Y1033258D02*
X883172D01*
X830839Y1080160D02*
X877741Y1033258D01*
X883172D02*
X884174Y1032256D01*
X792906Y847419D02*
X795453Y846590D01*
X794794Y852901D02*
X797624Y852213D01*
X792975Y853116D02*
X794794Y852901D01*
X680646Y864297D02*
X792975Y853116D01*
X683478Y869710D02*
X793157Y862718D01*
X683210Y875853D02*
X683884Y875377D01*
X684302Y875250D01*
X681879Y869837D02*
X683478Y869710D01*
X789345Y836496D02*
X791286Y835227D01*
X792284Y847576D02*
X792906Y847419D01*
X797846Y868864D02*
X798214Y868495D01*
X680927Y870284D02*
X681879Y869837D01*
X486547Y842889D02*
X786967Y831040D01*
X792073Y827628D01*
X672226Y847617D02*
X789345Y836496D01*
X618555Y859132D02*
X672226Y847617D01*
X793157Y862718D02*
X803545Y855330D01*
X792073Y827628D02*
X792983Y827628D01*
X791286Y835227D02*
X794367Y833168D01*
X684302Y875250D02*
X797846Y868864D01*
X676561Y858872D02*
X792284Y847576D01*
X679405Y864477D02*
X680646Y864297D01*
X685471Y881484D02*
X686305Y880790D01*
X800140Y874404D02*
X824288Y870862D01*
X686305Y880790D02*
X800140Y874404D01*
X678666Y864673D02*
X679405Y864477D01*
X435356Y894080D02*
X486547Y842889D01*
X790995Y842036D02*
X793593Y840759D01*
X798214Y868495D02*
X805840Y860870D01*
X797624Y852213D02*
X801251Y849789D01*
X824288Y870862D02*
X824588D01*
X642874Y916940D02*
X685471Y881484D01*
X793593Y840759D02*
X796661Y838709D01*
X792983Y827628D02*
X815933Y827628D01*
X795453Y846590D02*
X798956Y844249D01*
X638256Y909692D02*
X683210Y875853D01*
X625450Y880770D02*
X676561Y858872D01*
X785114Y825500D02*
X852527Y758087D01*
X477402Y909692D02*
X638256D01*
X488188Y916940D02*
X642874D01*
X435356Y894080D02*
Y1083818D01*
X1073730Y856306D02*
Y868659D01*
X847210Y849789D02*
X851532Y850668D01*
X801251Y849789D02*
X847210D01*
X796661Y838709D02*
X864233Y838708D01*
X803545Y855330D02*
X844915Y855329D01*
X864479Y845127D02*
X866553Y847202D01*
X794367Y833168D02*
X860707Y833168D01*
X798956Y844249D02*
X849505D01*
X845794Y856208D02*
X859282Y869696D01*
X860707Y833168D02*
X893013Y800862D01*
X851532Y850668D02*
X860147Y859282D01*
X844915Y855329D02*
X845794Y856208D01*
X864233Y838708D02*
X893708Y809234D01*
X815933Y827628D02*
X816812Y826749D01*
X879934Y763628D01*
X849505Y844249D02*
X864479Y845127D01*
X936849Y816356D02*
X950516Y830024D01*
Y831010D01*
X903224Y787400D02*
X944626D01*
X906780Y772668D02*
X938104D01*
X978540Y844481D02*
Y920120D01*
X941324Y907542D02*
X979302Y945520D01*
X1010036D01*
X975511Y758087D02*
X1073730Y856306D01*
X1072896Y924560D02*
X1073730Y868704D01*
X944880Y800862D02*
X1057402Y913384D01*
X944626Y787400D02*
X1058672Y901446D01*
X1062228D01*
X1012952Y924560D02*
X1072896D01*
X852527Y758087D02*
X975511D01*
X1011737Y752547D02*
X1022604Y741680D01*
X896214Y824890D02*
Y836906D01*
X895350Y837770D02*
X896214Y836906D01*
X938104Y772668D02*
X1038564Y873128D01*
X879934Y763628D02*
X951588D01*
X893013Y800862D02*
X944880D01*
X951588Y763628D02*
X1045972Y858012D01*
X896214Y824890D02*
X904748Y816356D01*
X769620Y952246D02*
X778074Y960700D01*
X803035D02*
X807281Y964946D01*
X834136D01*
X778074Y960700D02*
X803035D01*
X842772Y955294D02*
X845312Y957834D01*
Y985266D01*
X836232Y860870D02*
X838353Y862991D01*
Y863533D01*
X843130Y868310D02*
Y870204D01*
X838353Y863533D02*
X843130Y868310D01*
X520700Y885190D02*
Y886460D01*
X536702Y902462D01*
X409956Y929354D02*
X425466Y944864D01*
X457090Y948038D02*
X488188Y916940D01*
X457090Y948038D02*
Y993140D01*
X719706Y1117600D02*
X814070D01*
X622918Y1113282D02*
X715388D01*
X719706Y1117600D01*
X841104Y1107330D02*
X851154Y1097280D01*
X532130Y1090820D02*
X548640Y1107330D01*
X841104D01*
X830839Y1080160D02*
Y1089401D01*
X830580Y1089660D02*
X830839Y1089401D01*
X866648Y930793D02*
Y1017817D01*
X878586Y990600D02*
Y1013714D01*
X880310Y1019825D02*
X1002269D01*
X820205Y1064260D02*
X866648Y1017817D01*
X706882Y1076452D02*
X815848D01*
X798435Y1101700D02*
X880310Y1019825D01*
X770890Y1064260D02*
X820205D01*
X815848Y1076452D02*
X878586Y1013714D01*
X566268Y1101700D02*
X798435D01*
X921578Y822960D02*
X933679D01*
X941324Y830605D01*
Y907542D01*
X904748Y816356D02*
X936849D01*
X893708Y809234D02*
X943293D01*
X916498Y828040D02*
X921578Y822960D01*
X888802Y859282D02*
X916498Y831586D01*
Y828040D02*
Y831586D01*
X860147Y859282D02*
X888802D01*
X830580Y1002100D02*
X847160D01*
X480630Y1072450D02*
X494030Y1085850D01*
X469201Y1072450D02*
X480630D01*
X451549Y1054799D02*
X469201Y1072450D01*
X451549Y935545D02*
Y1054799D01*
Y935545D02*
X477402Y909692D01*
X805840Y860870D02*
X836232D01*
X482346Y1043686D02*
X494030Y1055370D01*
X482346Y1018396D02*
Y1043686D01*
X457090Y993140D02*
X482346Y1018396D01*
X1002269Y1019825D02*
X1004062Y1018032D01*
X558546Y1093978D02*
X566268Y1101700D01*
X558546Y1069086D02*
Y1093978D01*
X544830Y1055370D02*
X558546Y1069086D01*
X505714D02*
X519430Y1055370D01*
X505714Y1069086D02*
Y1092200D01*
X500380Y1097534D02*
X505714Y1092200D01*
X449072Y1097534D02*
X500380D01*
X435356Y1083818D02*
X449072Y1097534D01*
X998220Y909828D02*
X1012952Y924560D01*
X943293Y809234D02*
X978540Y844481D01*
X997458Y1055116D02*
X1012698Y1039876D01*
X863718Y1055116D02*
X997458D01*
X851154Y1067680D02*
X863718Y1055116D01*
X851154Y1067680D02*
Y1097280D01*
X532130Y999490D02*
Y1090820D01*
X519430Y986790D02*
X532130Y999490D01*
X1038564Y873128D02*
X1055246D01*
X859282Y869696D02*
X869442D01*
X605790Y1130410D02*
X622918Y1113282D01*
X530970Y1130410D02*
X605790D01*
X519430Y1118870D02*
X530970Y1130410D01*
X702502Y1135950D02*
X712978Y1125474D01*
X518476Y1135950D02*
X702502D01*
X507746Y1125220D02*
X518476Y1135950D01*
X507746Y1101598D02*
Y1125220D01*
Y1101598D02*
X519430Y1089914D01*
Y1085850D02*
Y1089914D01*
X694690Y1064260D02*
X706882Y1076452D01*
X859215Y923360D02*
X866648Y930793D01*
X852170Y923360D02*
X859215D01*
X866553Y847202D02*
Y850138D01*
X681990Y1076960D02*
X694690Y1064260D01*
X647342Y1076960D02*
X681990D01*
X626872Y1056490D02*
X647342Y1076960D01*
X626872Y1020318D02*
Y1056490D01*
Y1020318D02*
X711200D01*
X722630Y1008888D01*
Y1003370D02*
Y1008888D01*
X494030Y1021080D02*
X505714Y1009396D01*
Y980440D02*
Y1009396D01*
Y980440D02*
X510904Y975250D01*
X551324D01*
X556514Y980440D01*
Y1026160D01*
X568706Y1038352D01*
X600710D01*
X618998Y1056640D01*
Y1065530D01*
X662940Y1029970D02*
Y1057910D01*
X669290Y1064260D01*
X841248Y989330D02*
X845312Y985266D01*
X799084Y989330D02*
X841248D01*
X795274Y993140D02*
X799084Y989330D01*
X795274Y993140D02*
Y1017524D01*
X782758Y1030040D02*
X795274Y1017524D01*
X687070Y1030040D02*
X782758D01*
X769620Y924560D02*
Y952246D01*
X806450Y1002170D02*
Y1016762D01*
X782710Y1040502D02*
X806450Y1016762D01*
X743848Y1040502D02*
X782710D01*
X720090Y1064260D02*
X743848Y1040502D01*
X843534Y998474D02*
X847160Y1002100D01*
X855980D01*
X803910Y923360D02*
X828040D01*
X852170D01*
X756736Y924560D02*
X769620D01*
X756666Y924630D02*
X756736Y924560D01*
X744220Y924630D02*
X756666D01*
X720090D02*
X744220D01*
X818458Y1002100D02*
X830580D01*
X818388Y1002170D02*
X818458Y1002100D01*
X806450Y1002170D02*
X818388D01*
X722630Y1003370D02*
X748030D01*
X772160D01*
X650126Y1029970D02*
X662940D01*
X649986Y1030110D02*
X650126Y1029970D01*
X637540Y1030110D02*
X649986D01*
X674948Y1030040D02*
X687070D01*
X674878Y1029970D02*
X674948Y1030040D01*
X662940Y1029970D02*
X674878D01*
X720090Y901630D02*
X744220D01*
X803910Y900360D02*
X828040D01*
D57*
X855980Y1002100D02*
D03*
Y979100D02*
D03*
X772160Y1003370D02*
D03*
Y980370D02*
D03*
X687070Y1030040D02*
D03*
Y1007040D02*
D03*
X769620Y924560D02*
D03*
Y901560D02*
D03*
X852170Y923360D02*
D03*
Y900360D02*
D03*
X803910D02*
D03*
Y923360D02*
D03*
X828040D02*
D03*
Y900360D02*
D03*
X744220Y924630D02*
D03*
Y901630D02*
D03*
X720090D02*
D03*
Y924630D02*
D03*
X748030Y1003370D02*
D03*
Y980370D02*
D03*
X722630D02*
D03*
Y1003370D02*
D03*
X830580Y1002100D02*
D03*
Y979100D02*
D03*
X806450Y979170D02*
D03*
Y1002170D02*
D03*
X637540Y1007110D02*
D03*
Y1030110D02*
D03*
X662940Y1029970D02*
D03*
Y1006970D02*
D03*
D63*
X901446Y886460D02*
X925576Y862330D01*
X778256Y886460D02*
X901446D01*
X769620Y895096D02*
X778256Y886460D01*
X796776Y749396D02*
X817498Y728673D01*
Y720472D02*
Y728673D01*
X641405Y749396D02*
X796776D01*
X817498Y720472D02*
X819150Y718820D01*
X595230Y795570D02*
X641405Y749396D01*
X595230Y795570D02*
Y800570D01*
X772160Y986028D02*
X779780D01*
X780682Y1018286D02*
X785368Y1013600D01*
X772682Y1018286D02*
X780682D01*
X785368Y991616D02*
Y1013600D01*
X760225Y1018035D02*
X772431D01*
X759460Y1017270D02*
X760225Y1018035D01*
X772431D02*
X772682Y1018286D01*
X687070Y1007040D02*
X687670Y1006440D01*
X702980D01*
X703580Y1005840D01*
X845820Y939800D02*
X855980Y949960D01*
Y979100D01*
X794004Y939800D02*
X845820D01*
X788924Y934720D02*
X794004Y939800D01*
X595630Y986790D02*
X610616D01*
X707817Y889589D02*
X767080D01*
X610616Y986790D02*
X707817Y889589D01*
X930910Y834390D02*
Y835472D01*
X925576Y840806D02*
X930910Y835472D01*
X925576Y840806D02*
Y862330D01*
X904240Y920242D02*
X925576Y898906D01*
Y862330D02*
Y898906D01*
X545080Y800720D02*
X545230Y800570D01*
X480060Y801370D02*
X480710Y800720D01*
X545080D01*
X769620Y895096D02*
Y901560D01*
Y892129D02*
Y895096D01*
X788924Y917956D02*
Y934720D01*
X777494Y906526D02*
X788924Y917956D01*
X769620Y901560D02*
X777494Y906526D01*
X779780Y986028D02*
X785368Y991616D01*
X772160Y980370D02*
Y986028D01*
X887984Y920242D02*
X904240D01*
X868102Y900360D02*
X887984Y920242D01*
X852170Y900360D02*
X868102D01*
X767080Y889589D02*
X769620Y892129D01*
X634238Y1089660D02*
X669290D01*
X630428Y1085850D02*
X634238Y1089660D01*
X595630Y1085850D02*
X630428D01*
X669290Y1089660D02*
X694690D01*
X745490D02*
X770890D01*
X694690D02*
X720090D01*
X745490D01*
D64*
X706585Y947252D02*
Y980370D01*
Y914135D02*
Y947252D01*
X615696Y964184D02*
X690050Y889830D01*
X491236Y964184D02*
X615696D01*
X1055370Y808990D02*
X1056127Y809747D01*
X1077255D02*
X1080770Y813262D01*
X1056127Y809747D02*
X1077255D01*
X1080770Y813262D02*
Y962660D01*
X1069285Y974145D02*
X1080770Y962660D01*
X997971Y974145D02*
X1069285D01*
X961086Y937260D02*
X997971Y974145D01*
X909320Y937260D02*
X961086D01*
X680222Y947918D02*
X691652D01*
X657860Y970280D02*
X680222Y947918D01*
X691652D02*
X706585Y947252D01*
X806450Y979170D02*
X818388D01*
X805450D02*
X806450D01*
X748030Y980370D02*
X749030D01*
X722630D02*
X748030D01*
X749030D02*
X751530Y977870D01*
Y971255D02*
Y977870D01*
X755045Y967740D02*
X799435D01*
X802950Y971255D01*
Y976670D01*
X751530Y971255D02*
X755045Y967740D01*
X802950Y976670D02*
X805450Y979170D01*
X706585Y980370D02*
X722630D01*
X690540D02*
X706585D01*
Y914135D02*
X719090Y901630D01*
X720090D01*
X662940Y1006970D02*
X663940D01*
X690540Y980370D01*
X637610Y1007040D02*
X662870D01*
X662940Y1006970D01*
X637540Y1007110D02*
X637610Y1007040D01*
X610370Y1004570D02*
X612910Y1007110D01*
X586740Y1004570D02*
X610370D01*
X612910Y1007110D02*
X637540D01*
X570230Y1021080D02*
X586740Y1004570D01*
X484763Y937260D02*
X494923Y927100D01*
X535587D01*
X483870Y937260D02*
X484763D01*
X539397Y930910D02*
X582930D01*
X535587Y927100D02*
X539397Y930910D01*
X468630Y986790D02*
X491236Y964184D01*
X818458Y979100D02*
X830580D01*
X818388Y979170D02*
X818458Y979100D01*
D68*
X624840Y701040D02*
D03*
X514840D02*
D03*
D69*
X544840Y801040D02*
D03*
X594840D02*
D03*
D70*
X669290Y1064260D02*
D03*
X694690D02*
D03*
X720090D02*
D03*
X745490D02*
D03*
X770890D02*
D03*
X669290Y1089660D02*
D03*
X694690D02*
D03*
X720090D02*
D03*
X745490D02*
D03*
D71*
X770890D02*
D03*
D72*
X563880Y861060D02*
D03*
X538480D02*
D03*
X513080D02*
D03*
D73*
X819150Y718820D02*
D03*
X1055370Y808990D02*
D03*
X706585Y947252D02*
D03*
X657860Y970280D02*
D03*
X909320Y937260D02*
D03*
X480060Y801370D02*
D03*
Y775970D02*
D03*
D74*
X570230Y986790D02*
D03*
Y1021080D02*
D03*
Y1055370D02*
D03*
Y1085850D02*
D03*
Y1118870D02*
D03*
X468630Y986790D02*
D03*
X544830D02*
D03*
X519430D02*
D03*
X494030D02*
D03*
X595630D02*
D03*
X468630Y1021080D02*
D03*
X544830D02*
D03*
X519430D02*
D03*
X494030D02*
D03*
X595630D02*
D03*
X468630Y1055370D02*
D03*
X544830D02*
D03*
X519430D02*
D03*
X494030D02*
D03*
X595630D02*
D03*
X447040Y905510D02*
D03*
X421640D02*
D03*
X468630Y1085850D02*
D03*
X544830D02*
D03*
X519430D02*
D03*
X494030D02*
D03*
X595630D02*
D03*
X468630Y1118870D02*
D03*
X595630D02*
D03*
X544830D02*
D03*
X519430D02*
D03*
X494030D02*
D03*
D75*
X615950Y881380D02*
D03*
X622300Y868172D02*
D03*
X690050Y889830D02*
D03*
X950516Y831010D02*
D03*
X906780Y772668D02*
D03*
X903224Y787400D02*
D03*
X978540Y920120D02*
D03*
X1057402Y913384D02*
D03*
X1062228Y901446D02*
D03*
X895350Y837770D02*
D03*
X842772Y955294D02*
D03*
X834136Y964946D02*
D03*
X843130Y870204D02*
D03*
X539750Y890270D02*
D03*
X520700Y885190D02*
D03*
X425466Y944864D02*
D03*
X814070Y1117600D02*
D03*
X830580Y1089660D02*
D03*
X824588Y870862D02*
D03*
X1004062Y1018032D02*
D03*
X1045972Y858012D02*
D03*
X998220Y909828D02*
D03*
X1012698Y1039876D02*
D03*
X1055246Y873128D02*
D03*
X591566Y897890D02*
D03*
X869442Y869696D02*
D03*
X884174Y1032256D02*
D03*
X1022604Y741680D02*
D03*
X782180Y787540D02*
D03*
X712978Y1125474D02*
D03*
X878586Y990600D02*
D03*
X1010036Y945520D02*
D03*
X866553Y850138D02*
D03*
X618998Y1065530D02*
D03*
X843534Y998474D02*
D03*
D76*
X759460Y1017270D02*
D03*
X703580Y1005840D02*
D03*
X483870Y937260D02*
D03*
X582930Y930910D02*
D03*
X930910Y834390D02*
D03*
M02*
