M48
;Layer_Color=9474304
;FILE_FORMAT=4:4
METRIC,LZ
;TYPE=PLATED
T1F00S00C0.4000
T2F00S00C0.6000
T3F00S00C0.7000
T4F00S00C0.7620
T5F00S00C0.8620
T6F00S00C1.0000
T7F00S00C1.2000
T8F00S00C2.0000
%
T01
X0090678Y00772668
X00903224Y007874
X01022604Y0074168
X0078218Y0078754
X0069005Y0088983
X0061595Y0088138
X006223Y00868172
X00591566Y0089789
X0053975Y0089027
X005207Y0088519
X00425466Y00944864
X00618998Y0106553
X00712978Y01125474
X0081407Y011176
X0083058Y0108966
X00843534Y00998474
X00834136Y00964946
X00842772Y00955294
X00878586Y009906
X00884174Y01032256
X01004062Y01018032
X01012698Y01039876
X01010036Y0094552
X0099822Y00909828
X0097854Y0092012
X01057402Y00913384
X01062228Y00901446
X01055246Y00873128
X01045972Y00858012
X00950516Y0083101
X0089535Y0083777
X00866553Y00850138
X00869442Y00869696
X0084313Y00870204
X00824588Y00870862
T02
X0048387Y0093726
X0058293Y0093091
X0070358Y0100584
X0075946Y0101727
X0093091Y0083439
T03
X0051308Y0086106
X0053848
X0056388
X0090932Y0093726
T04
X0081915Y0071882
X00706585Y00947252
X0065786Y0097028
X0105537Y0080899
T05
X0048006Y0077597
Y0080137
T06
X0042164Y0090551
X0044704
X0046863Y0098679
X0049403
X0051943
X0054483
X0057023
X0059563
Y0102108
X0057023
X0054483
X0051943
X0049403
X0046863
Y0105537
X0049403
X0051943
X0054483
X0057023
X0059563
Y0108585
X0057023
X0054483
X0051943
X0049403
X0046863
Y0111887
X0049403
X0051943
X0054483
X0057023
X0059563
X0066929Y0108966
Y0106426
X0069469
X0072009
X0074549
X0077089
Y0108966
X0074549
X0072009
X0069469
T07
X0051484Y0070104
X0062484
T08
X0054484Y0080104
X0059484
M30
