G04*
G04 #@! TF.GenerationSoftware,Altium Limited,Altium Designer,21.8.1 (53)*
G04*
G04 Layer_Color=32896*
%FSLAX44Y44*%
%MOMM*%
G71*
G04*
G04 #@! TF.SameCoordinates,E9657587-2D61-4917-BE27-2A2E8D1190E0*
G04*
G04*
G04 #@! TF.FilePolarity,Positive*
G04*
G01*
G75*
%ADD13C,0.2000*%
D13*
X845980Y970600D02*
Y1010600D01*
Y970600D02*
X865980D01*
X845980Y1010600D02*
X865980D01*
Y970600D02*
Y1010600D01*
X762160Y971870D02*
Y1011870D01*
Y971870D02*
X782160D01*
X762160Y1011870D02*
X782160D01*
Y971870D02*
Y1011870D01*
X677070Y998540D02*
Y1038540D01*
Y998540D02*
X697070D01*
X677070Y1038540D02*
X697070D01*
Y998540D02*
Y1038540D01*
X759620Y893060D02*
Y933060D01*
Y893060D02*
X779620D01*
X759620Y933060D02*
X779620D01*
Y893060D02*
Y933060D01*
X842170Y891860D02*
Y931860D01*
Y891860D02*
X862170D01*
X842170Y931860D02*
X862170D01*
Y891860D02*
Y931860D01*
X813910Y891860D02*
Y931860D01*
X793910D02*
X813910D01*
X793910Y891860D02*
X813910D01*
X793910D02*
Y931860D01*
X818040Y891860D02*
Y931860D01*
Y891860D02*
X838040D01*
X818040Y931860D02*
X838040D01*
Y891860D02*
Y931860D01*
X734220Y893130D02*
Y933130D01*
Y893130D02*
X754220D01*
X734220Y933130D02*
X754220D01*
Y893130D02*
Y933130D01*
X730090Y893130D02*
Y933130D01*
X710090D02*
X730090D01*
X710090Y893130D02*
X730090D01*
X710090D02*
Y933130D01*
X738030Y971870D02*
Y1011870D01*
Y971870D02*
X758030D01*
X738030Y1011870D02*
X758030D01*
Y971870D02*
Y1011870D01*
X732630Y971870D02*
Y1011870D01*
X712630D02*
X732630D01*
X712630Y971870D02*
X732630D01*
X712630D02*
Y1011870D01*
X820580Y970600D02*
Y1010600D01*
Y970600D02*
X840580D01*
X820580Y1010600D02*
X840580D01*
Y970600D02*
Y1010600D01*
X816450Y970670D02*
Y1010670D01*
X796450D02*
X816450D01*
X796450Y970670D02*
X816450D01*
X796450D02*
Y1010670D01*
X647540Y998610D02*
Y1038610D01*
X627540D02*
X647540D01*
X627540Y998610D02*
X647540D01*
X627540D02*
Y1038610D01*
X652940Y998470D02*
Y1038470D01*
Y998470D02*
X672940D01*
X652940Y1038470D02*
X672940D01*
Y998470D02*
Y1038470D01*
X840577Y1015811D02*
Y1023809D01*
X836578D01*
X835245Y1022476D01*
Y1019810D01*
X836578Y1018477D01*
X840577D01*
X837911D02*
X835245Y1015811D01*
X832579D02*
X829914D01*
X831246D01*
Y1023809D01*
X832579Y1022476D01*
X820583Y1023809D02*
X823249Y1022476D01*
X825915Y1019810D01*
Y1017144D01*
X824582Y1015811D01*
X821916D01*
X820583Y1017144D01*
Y1018477D01*
X821916Y1019810D01*
X825915D01*
X666939Y992977D02*
X658941D01*
Y988978D01*
X660274Y987645D01*
X662940D01*
X664273Y988978D01*
Y992977D01*
Y990311D02*
X666939Y987645D01*
Y984979D02*
Y982314D01*
Y983646D01*
X658941D01*
X660274Y984979D01*
X658941Y972983D02*
Y978315D01*
X662940D01*
X661607Y975649D01*
Y974316D01*
X662940Y972983D01*
X665606D01*
X666939Y974316D01*
Y976982D01*
X665606Y978315D01*
X750759Y966307D02*
X742761D01*
Y962308D01*
X744094Y960975D01*
X746760D01*
X748093Y962308D01*
Y966307D01*
Y963641D02*
X750759Y960975D01*
Y958309D02*
Y955644D01*
Y956976D01*
X742761D01*
X744094Y958309D01*
X750759Y947646D02*
X742761D01*
X746760Y951645D01*
Y946313D01*
X746949Y888837D02*
X738951D01*
Y884838D01*
X740284Y883505D01*
X742950D01*
X744283Y884838D01*
Y888837D01*
Y886171D02*
X746949Y883505D01*
Y880839D02*
Y878174D01*
Y879506D01*
X738951D01*
X740284Y880839D01*
Y874175D02*
X738951Y872842D01*
Y870176D01*
X740284Y868843D01*
X741617D01*
X742950Y870176D01*
Y871509D01*
Y870176D01*
X744283Y868843D01*
X745616D01*
X746949Y870176D01*
Y872842D01*
X745616Y874175D01*
X836767Y878651D02*
Y886649D01*
X832768D01*
X831435Y885316D01*
Y882650D01*
X832768Y881317D01*
X836767D01*
X834101D02*
X831435Y878651D01*
X828769D02*
X826104D01*
X827436D01*
Y886649D01*
X828769Y885316D01*
X816773Y878651D02*
X822105D01*
X816773Y883983D01*
Y885316D01*
X818106Y886649D01*
X820772D01*
X822105Y885316D01*
X817050Y962786D02*
X818383Y964119D01*
X821049D01*
X822382Y962786D01*
Y957454D01*
X821049Y956121D01*
X818383D01*
X817050Y957454D01*
X809053Y956121D02*
X814385D01*
X809053Y961453D01*
Y962786D01*
X810386Y964119D01*
X813052D01*
X814385Y962786D01*
X801056Y964119D02*
X806387D01*
Y960120D01*
X803721Y961453D01*
X802388D01*
X801056Y960120D01*
Y957454D01*
X802388Y956121D01*
X805054D01*
X806387Y957454D01*
X798390Y962786D02*
X793058Y957454D01*
X798390D02*
X793058Y962786D01*
X798390Y960120D02*
X793058D01*
X795724Y957454D02*
Y962786D01*
X634874Y988500D02*
X633541Y989833D01*
Y992499D01*
X634874Y993832D01*
X640206D01*
X641539Y992499D01*
Y989833D01*
X640206Y988500D01*
X641539Y980503D02*
Y985835D01*
X636207Y980503D01*
X634874D01*
X633541Y981836D01*
Y984502D01*
X634874Y985835D01*
X641539Y973838D02*
X633541D01*
X637540Y977837D01*
Y972505D01*
X634874Y969840D02*
X640206Y964508D01*
Y969840D02*
X634874Y964508D01*
X637540Y969840D02*
Y964508D01*
X640206Y967174D02*
X634874D01*
X718694Y961830D02*
X717361Y963163D01*
Y965829D01*
X718694Y967162D01*
X724026D01*
X725359Y965829D01*
Y963163D01*
X724026Y961830D01*
X725359Y953833D02*
Y959165D01*
X720027Y953833D01*
X718694D01*
X717361Y955166D01*
Y957832D01*
X718694Y959165D01*
Y951167D02*
X717361Y949834D01*
Y947168D01*
X718694Y945835D01*
X720027D01*
X721360Y947168D01*
Y948501D01*
Y947168D01*
X722693Y945835D01*
X724026D01*
X725359Y947168D01*
Y949834D01*
X724026Y951167D01*
X718694Y943170D02*
X724026Y937838D01*
Y943170D02*
X718694Y937838D01*
X721360Y943170D02*
Y937838D01*
X724026Y940504D02*
X718694D01*
Y884360D02*
X717361Y885693D01*
Y888359D01*
X718694Y889692D01*
X724026D01*
X725359Y888359D01*
Y885693D01*
X724026Y884360D01*
X725359Y876363D02*
Y881694D01*
X720027Y876363D01*
X718694D01*
X717361Y877696D01*
Y880362D01*
X718694Y881694D01*
X725359Y868365D02*
Y873697D01*
X720027Y868365D01*
X718694D01*
X717361Y869698D01*
Y872364D01*
X718694Y873697D01*
Y865700D02*
X724026Y860368D01*
Y865700D02*
X718694Y860368D01*
X721360Y865700D02*
Y860368D01*
X724026Y863034D02*
X718694D01*
X806224Y885316D02*
X807557Y886649D01*
X810223D01*
X811555Y885316D01*
Y879984D01*
X810223Y878651D01*
X807557D01*
X806224Y879984D01*
X798226Y878651D02*
X803558D01*
X798226Y883983D01*
Y885316D01*
X799559Y886649D01*
X802225D01*
X803558Y885316D01*
X795561Y878651D02*
X792895D01*
X794228D01*
Y886649D01*
X795561Y885316D01*
X788896D02*
X783565Y879984D01*
X788896D02*
X783565Y885316D01*
X788896Y882650D02*
X783565D01*
X786230Y879984D02*
Y885316D01*
X873534Y965326D02*
X874867Y966659D01*
X877533D01*
X878866Y965326D01*
Y959994D01*
X877533Y958661D01*
X874867D01*
X873534Y959994D01*
X870868Y958661D02*
X868202D01*
X869535D01*
Y966659D01*
X870868Y965326D01*
X864203D02*
X862871Y966659D01*
X860205D01*
X858872Y965326D01*
Y963993D01*
X860205Y962660D01*
X858872Y961327D01*
Y959994D01*
X860205Y958661D01*
X862871D01*
X864203Y959994D01*
Y961327D01*
X862871Y962660D01*
X864203Y963993D01*
Y965326D01*
X862871Y962660D02*
X860205D01*
X856206Y965326D02*
X850874Y959994D01*
X856206D02*
X850874Y965326D01*
X856206Y962660D02*
X850874D01*
X853540Y959994D02*
Y965326D01*
X684404Y987834D02*
X683071Y989167D01*
Y991833D01*
X684404Y993166D01*
X689736D01*
X691069Y991833D01*
Y989167D01*
X689736Y987834D01*
X691069Y985168D02*
Y982502D01*
Y983835D01*
X683071D01*
X684404Y985168D01*
X683071Y978503D02*
Y973172D01*
X684404D01*
X689736Y978503D01*
X691069D01*
X684404Y970506D02*
X689736Y965174D01*
Y970506D02*
X684404Y965174D01*
X687070Y970506D02*
Y965174D01*
X689736Y967840D02*
X684404D01*
X769494Y961164D02*
X768161Y962497D01*
Y965163D01*
X769494Y966496D01*
X774826D01*
X776159Y965163D01*
Y962497D01*
X774826Y961164D01*
X776159Y958498D02*
Y955832D01*
Y957165D01*
X768161D01*
X769494Y958498D01*
X768161Y946502D02*
X769494Y949168D01*
X772160Y951833D01*
X774826D01*
X776159Y950501D01*
Y947835D01*
X774826Y946502D01*
X773493D01*
X772160Y947835D01*
Y951833D01*
X769494Y943836D02*
X774826Y938504D01*
Y943836D02*
X769494Y938504D01*
X772160Y943836D02*
Y938504D01*
X774826Y941170D02*
X769494D01*
X865914Y885316D02*
X867247Y886649D01*
X869913D01*
X871245Y885316D01*
Y879984D01*
X869913Y878651D01*
X867247D01*
X865914Y879984D01*
X863248Y878651D02*
X860582D01*
X861915D01*
Y886649D01*
X863248Y885316D01*
X851252Y886649D02*
X856583D01*
Y882650D01*
X853918Y883983D01*
X852585D01*
X851252Y882650D01*
Y879984D01*
X852585Y878651D01*
X855251D01*
X856583Y879984D01*
X848586Y885316D02*
X843254Y879984D01*
X848586D02*
X843254Y885316D01*
X848586Y882650D02*
X843254D01*
X845920Y879984D02*
Y885316D01*
X766954Y883694D02*
X765621Y885027D01*
Y887693D01*
X766954Y889025D01*
X772286D01*
X773619Y887693D01*
Y885027D01*
X772286Y883694D01*
X773619Y881028D02*
Y878362D01*
Y879695D01*
X765621D01*
X766954Y881028D01*
X773619Y870365D02*
X765621D01*
X769620Y874363D01*
Y869032D01*
X766954Y866366D02*
X772286Y861034D01*
Y866366D02*
X766954Y861034D01*
X769620Y866366D02*
Y861034D01*
X772286Y863700D02*
X766954D01*
M02*
