G04*
G04 #@! TF.GenerationSoftware,Altium Limited,Altium Designer,21.8.1 (53)*
G04*
G04 Layer_Color=128*
%FSLAX44Y44*%
%MOMM*%
G71*
G04*
G04 #@! TF.SameCoordinates,C4D929B5-7D41-4403-8FE4-D3E0D308529A*
G04*
G04*
G04 #@! TF.FilePolarity,Positive*
G04*
G01*
G75*
%ADD49C,0.0508*%
D49*
X618840Y701040D02*
X630840D01*
X624840Y695040D02*
Y707040D01*
X534840Y801040D02*
X554840D01*
X544840Y791040D02*
Y811040D01*
X584840Y801040D02*
X604840D01*
X594840Y791040D02*
Y811040D01*
X508840Y701040D02*
X520840D01*
X514840Y695040D02*
Y707040D01*
X664290Y1064260D02*
X674290D01*
X669290Y1059260D02*
Y1069260D01*
X689690Y1064260D02*
X699690D01*
X694690Y1059260D02*
Y1069260D01*
X715090Y1064260D02*
X725090D01*
X720090Y1059260D02*
Y1069260D01*
X740490Y1064260D02*
X750490D01*
X745490Y1059260D02*
Y1069260D01*
X765890Y1064260D02*
X775890D01*
X770890Y1059260D02*
Y1069260D01*
X664290Y1089660D02*
X674290D01*
X669290Y1084660D02*
Y1094660D01*
X689690Y1089660D02*
X699690D01*
X694690Y1084660D02*
Y1094660D01*
X715090Y1089660D02*
X725090D01*
X720090Y1084660D02*
Y1094660D01*
X740490Y1089660D02*
X750490D01*
X745490Y1084660D02*
Y1094660D01*
X765890Y1089660D02*
X775890D01*
X770890Y1084660D02*
Y1094660D01*
X560380Y861060D02*
X567380D01*
X563880Y857560D02*
Y864560D01*
X534980Y861060D02*
X541980D01*
X538480Y857560D02*
Y864560D01*
X509580Y861060D02*
X516580D01*
X513080Y857560D02*
Y864560D01*
X815340Y718820D02*
X822960D01*
X819150Y715010D02*
Y722630D01*
X1051560Y808990D02*
X1059180D01*
X1055370Y805180D02*
Y812800D01*
X702775Y947252D02*
X710395D01*
X706585Y943442D02*
Y951062D01*
X654050Y970280D02*
X661670D01*
X657860Y966470D02*
Y974090D01*
X905820Y937260D02*
X912820D01*
X909320Y933760D02*
Y940760D01*
X475750Y801370D02*
X484370D01*
X480060Y797060D02*
Y805680D01*
X565230Y986790D02*
X575230D01*
X570230Y981790D02*
Y991790D01*
X565230Y1021080D02*
X575230D01*
X570230Y1016080D02*
Y1026080D01*
X565230Y1055370D02*
X575230D01*
X570230Y1050370D02*
Y1060370D01*
X565230Y1085850D02*
X575230D01*
X570230Y1080850D02*
Y1090850D01*
X565230Y1118870D02*
X575230D01*
X570230Y1113870D02*
Y1123870D01*
X475750Y775970D02*
X484370D01*
X480060Y771660D02*
Y780280D01*
X463630Y986790D02*
X473630D01*
X468630Y981790D02*
Y991790D01*
X539830Y986790D02*
X549830D01*
X544830Y981790D02*
Y991790D01*
X514430Y986790D02*
X524430D01*
X519430Y981790D02*
Y991790D01*
X489030Y986790D02*
X499030D01*
X494030Y981790D02*
Y991790D01*
X590630Y986790D02*
X600630D01*
X595630Y981790D02*
Y991790D01*
X463630Y1021080D02*
X473630D01*
X468630Y1016080D02*
Y1026080D01*
X539830Y1021080D02*
X549830D01*
X544830Y1016080D02*
Y1026080D01*
X514430Y1021080D02*
X524430D01*
X519430Y1016080D02*
Y1026080D01*
X489030Y1021080D02*
X499030D01*
X494030Y1016080D02*
Y1026080D01*
X590630Y1021080D02*
X600630D01*
X595630Y1016080D02*
Y1026080D01*
X463630Y1055370D02*
X473630D01*
X468630Y1050370D02*
Y1060370D01*
X539830Y1055370D02*
X549830D01*
X544830Y1050370D02*
Y1060370D01*
X514430Y1055370D02*
X524430D01*
X519430Y1050370D02*
Y1060370D01*
X489030Y1055370D02*
X499030D01*
X494030Y1050370D02*
Y1060370D01*
X590630Y1055370D02*
X600630D01*
X595630Y1050370D02*
Y1060370D01*
X442040Y905510D02*
X452040D01*
X447040Y900510D02*
Y910510D01*
X416640Y905510D02*
X426640D01*
X421640Y900510D02*
Y910510D01*
X463630Y1085850D02*
X473630D01*
X468630Y1080850D02*
Y1090850D01*
X539830Y1085850D02*
X549830D01*
X544830Y1080850D02*
Y1090850D01*
X514430Y1085850D02*
X524430D01*
X519430Y1080850D02*
Y1090850D01*
X489030Y1085850D02*
X499030D01*
X494030Y1080850D02*
Y1090850D01*
X590630Y1085850D02*
X600630D01*
X595630Y1080850D02*
Y1090850D01*
X463630Y1118870D02*
X473630D01*
X468630Y1113870D02*
Y1123870D01*
X590630Y1118870D02*
X600630D01*
X595630Y1113870D02*
Y1123870D01*
X539830Y1118870D02*
X549830D01*
X544830Y1113870D02*
Y1123870D01*
X514430Y1118870D02*
X524430D01*
X519430Y1113870D02*
Y1123870D01*
X489030Y1118870D02*
X499030D01*
X494030Y1113870D02*
Y1123870D01*
X613950Y881380D02*
X617950D01*
X615950Y879380D02*
Y883380D01*
X620300Y868172D02*
X624300D01*
X622300Y866172D02*
Y870172D01*
X688050Y889830D02*
X692050D01*
X690050Y887830D02*
Y891830D01*
X948516Y831010D02*
X952516D01*
X950516Y829010D02*
Y833010D01*
X904780Y772668D02*
X908780D01*
X906780Y770668D02*
Y774668D01*
X901224Y787400D02*
X905224D01*
X903224Y785400D02*
Y789400D01*
X976540Y920120D02*
X980540D01*
X978540Y918120D02*
Y922120D01*
X1055402Y913384D02*
X1059402D01*
X1057402Y911384D02*
Y915384D01*
X1060228Y901446D02*
X1064228D01*
X1062228Y899446D02*
Y903446D01*
X893350Y837770D02*
X897350D01*
X895350Y835770D02*
Y839770D01*
X756460Y1017270D02*
X762460D01*
X759460Y1014270D02*
Y1020270D01*
X700580Y1005840D02*
X706580D01*
X703580Y1002840D02*
Y1008840D01*
X840772Y955294D02*
X844772D01*
X842772Y953294D02*
Y957294D01*
X832136Y964946D02*
X836136D01*
X834136Y962946D02*
Y966946D01*
X841130Y870204D02*
X845130D01*
X843130Y868204D02*
Y872204D01*
X537750Y890270D02*
X541750D01*
X539750Y888270D02*
Y892270D01*
X518700Y885190D02*
X522700D01*
X520700Y883190D02*
Y887190D01*
X423466Y944864D02*
X427466D01*
X425466Y942864D02*
Y946864D01*
X480870Y937260D02*
X486870D01*
X483870Y934260D02*
Y940260D01*
X579930Y930910D02*
X585930D01*
X582930Y927910D02*
Y933910D01*
X812070Y1117600D02*
X816070D01*
X814070Y1115600D02*
Y1119600D01*
X828580Y1089660D02*
X832580D01*
X830580Y1087660D02*
Y1091660D01*
X927910Y834390D02*
X933910D01*
X930910Y831390D02*
Y837390D01*
X822588Y870862D02*
X826588D01*
X824588Y868862D02*
Y872862D01*
X1002062Y1018032D02*
X1006062D01*
X1004062Y1016032D02*
Y1020032D01*
X1043972Y858012D02*
X1047972D01*
X1045972Y856012D02*
Y860012D01*
X996220Y909828D02*
X1000220D01*
X998220Y907828D02*
Y911828D01*
X1010698Y1039876D02*
X1014698D01*
X1012698Y1037876D02*
Y1041876D01*
X1053246Y873128D02*
X1057246D01*
X1055246Y871128D02*
Y875128D01*
X589566Y897890D02*
X593566D01*
X591566Y895890D02*
Y899890D01*
X867442Y869696D02*
X871442D01*
X869442Y867696D02*
Y871696D01*
X882174Y1032256D02*
X886174D01*
X884174Y1030256D02*
Y1034256D01*
X1020604Y741680D02*
X1024604D01*
X1022604Y739680D02*
Y743680D01*
X780180Y787540D02*
X784180D01*
X782180Y785540D02*
Y789540D01*
X710978Y1125474D02*
X714978D01*
X712978Y1123474D02*
Y1127474D01*
X876586Y990600D02*
X880586D01*
X878586Y988600D02*
Y992600D01*
X1008036Y945520D02*
X1012036D01*
X1010036Y943520D02*
Y947520D01*
X864554Y850138D02*
X868553D01*
X866553Y848138D02*
Y852138D01*
X616998Y1065530D02*
X620998D01*
X618998Y1063530D02*
Y1067530D01*
X841534Y998474D02*
X845534D01*
X843534Y996474D02*
Y1000474D01*
M02*
